<?xml version="1.0" standalone="no"?>
<!DOCTYPE svg PUBLIC "-//W3C//DTD SVG 1.1//EN" "http://www.w3.org/Graphics/SVG/1.1/DTD/svg11.dtd" >
<svg xmlns="http://www.w3.org/2000/svg">
<metadata></metadata>
<defs>
<font id="CobolBoldRegular" horiz-adv-x="1011" >
<font-face units-per-em="2048" ascent="1536" descent="-512" />
<missing-glyph horiz-adv-x="614" />
<glyph horiz-adv-x="0" />
<glyph horiz-adv-x="2048" />
<glyph unicode=" "  horiz-adv-x="614" />
<glyph unicode="&#x09;" horiz-adv-x="614" />
<glyph unicode="&#xa0;" horiz-adv-x="614" />
<glyph unicode="!" horiz-adv-x="354" d="M102 0v180h150v-180h-150zM102 270v1162h150v-1162h-150z" />
<glyph unicode="&#x22;" horiz-adv-x="542" d="M102 1106v326h150v-326h-150zM291 1106v326h149v-326h-149z" />
<glyph unicode="#" horiz-adv-x="1079" d="M102 342v152h189q68 298 69 303h-258v151h285q15 72 49.5 222t50.5 221h154l-98 -443h112q24 95 99 443h153l-98 -443h168v-151h-195q-11 -51 -34.5 -152t-34.5 -151h264v-152h-295l-74 -342h-151l67 342h-110q-37 -185 -72 -342h-154l70 342h-156zM446 494h113l66 303 h-111z" />
<glyph unicode="$" horiz-adv-x="1167" d="M102 186v140h150v-68q39 -31 81.5 -67.5t47.5 -40.5h129v522h-162l-246 205v327l228 228h180v90h149v-90h185l221 -228v-129h-147v68q-18 18 -62.5 64.5t-71.5 72.5h-125v-459h164l242 -241v-394l-219 -186h-187v-90h-149v90h-180zM252 946q134 -107 154 -125h104v459 h-125l-133 -137v-197zM659 150h125l134 108v258l-154 156h-105v-522z" />
<glyph unicode="%" horiz-adv-x="1490" d="M102 844v385l160 160h246l160 -160v-385l-160 -160h-246zM250 0l807 1391h178l-807 -1391h-178zM254 905l68 -71h127l67 69v266l-67 68h-127q-12 -10 -34 -34t-34 -34v-264zM825 160v387l158 158h246l160 -158v-387l-160 -160h-246zM975 219q10 -13 33.5 -35t33.5 -34 h125l72 71v264l-72 68h-125l-67 -68v-266z" />
<glyph unicode="&#x26;" horiz-adv-x="1419" d="M102 186v414l193 158l-193 186v260l228 228h192l228 -228v-266l-226 -184q349 -334 391 -373v248h152v-389l250 -240h-219l-121 115q-17 -17 -135 -115h-512zM252 258l133 -108h401q10 9 37.5 31.5t42.5 37.5q-22 20 -458 430q-27 -22 -78 -60.5t-78 -60.5v-270z M252 1006q9 -12 160 -152l188 156v133q-25 23 -68 68.5t-67 68.5h-78q-24 -23 -68 -68.5t-67 -68.5v-137z" />
<glyph unicode="'" horiz-adv-x="354" d="M102 1106v326h150v-326h-150z" />
<glyph unicode="(" horiz-adv-x="528" d="M102 608q0 73 18.5 182t45 213t53.5 197.5t45 151.5l19 57l137 -47q-7 -20 -18 -55t-40 -134t-51.5 -188.5t-40.5 -196.5t-18 -180q0 -107 36.5 -278t69.5 -282t68 -214l-139 -47q-28 78 -63.5 195.5t-78.5 312t-43 313.5z" />
<glyph unicode=")" horiz-adv-x="528" d="M102 -168q61 203 88.5 300.5t55.5 238.5t28 237q0 73 -17 177.5t-41 201.5t-48.5 183.5t-41.5 139.5l-17 52l135 47q7 -22 19.5 -60t44 -145.5t55.5 -203t43.5 -207.5t19.5 -185q0 -168 -68 -427.5t-118 -391.5z" />
<glyph unicode="*" horiz-adv-x="925" d="M102 649l256 254l-256 256l105 107l180 -183v256h150v-254l182 183l104 -107l-256 -256l256 -258l-104 -104l-182 180v-254h-150v256q-20 -20 -57 -58t-67.5 -68t-55.5 -54z" />
<glyph unicode="+" horiz-adv-x="1079" d="M102 551v151h361v361h151v-361h363v-151h-363v-363h-151v363h-361z" />
<glyph unicode="," horiz-adv-x="460" d="M102 -59l97 129v184h159v-231l-131 -177z" />
<glyph unicode="-" horiz-adv-x="774" d="M102 551v151h570v-151h-570z" />
<glyph unicode="." horiz-adv-x="362" d="M102 0v260h158v-260h-158z" />
<glyph unicode="/" horiz-adv-x="997" d="M102 0l635 1434h158l-633 -1434h-160z" />
<glyph unicode="0" horiz-adv-x="1165" d="M102 186v1020l228 228h512l221 -228v-1020l-219 -186h-514zM252 258l29 -25q16 -13 32.5 -26.5t36 -30t31.5 -26.5h401l133 108v887q-19 19 -62.5 65t-70.5 72h-397q-18 -18 -62.5 -65t-70.5 -72v-887z" />
<glyph unicode="1" horiz-adv-x="647" d="M102 1030v180l332 226h111v-1436h-152v1229z" />
<glyph unicode="2" horiz-adv-x="1167" d="M102 0v582l242 241h418q115 93 156 131v191q-18 18 -62.5 64.5t-71.5 72.5h-399q-18 -18 -62.5 -65t-70.5 -72v-68h-150v129l228 228h514l221 -228v-327l-246 -205h-413l-154 -156v-368h813v-150h-963z" />
<glyph unicode="3" horiz-adv-x="1165" d="M102 186v140h150v-68l133 -108h397l133 108v260l-153 156h-313v149h311q108 87 155 131v191q-19 19 -62.5 65t-70.5 72h-397q-18 -18 -62.5 -65t-70.5 -72v-68h-150v129l228 228h512l221 -228v-327l-162 -136q43 -42 93.5 -93t68.5 -68v-396l-219 -186h-514z" />
<glyph unicode="4" horiz-adv-x="1212" d="M102 420v110l646 904h165v-863h197v-151h-197v-420h-153v420h-658zM313 571h447v633z" />
<glyph unicode="5" horiz-adv-x="1167" d="M102 186v140h150v-68l129 -108h403l134 108v274l-154 156h-416l-246 205v541h928v-152h-778v-319q121 -96 154 -125h417l242 -244v-408l-219 -186h-516z" />
<glyph unicode="6" horiz-adv-x="1165" d="M102 186v1020l228 228h512l221 -228v-125h-148v64q-19 19 -62.5 65t-70.5 72h-397q-22 -23 -65 -69t-66 -68v-381q63 63 76 74h512l221 -226v-426l-219 -186h-514zM252 258l29 -25q16 -13 32.5 -26.5t36 -30t31.5 -26.5h401l133 108v295l-135 135h-393l-135 -135v-295z " />
<glyph unicode="7" horiz-adv-x="1081" d="M102 1282v152h877v-107l-567 -1327h-160l543 1282h-693z" />
<glyph unicode="8" horiz-adv-x="1165" d="M102 186v408l162 164l-162 135v313l228 228h512l221 -228v-313l-162 -135l162 -164v-408l-219 -186h-514zM252 258l131 -108h399l133 108v274l-153 156h-356l-154 -156v-274zM252 963q121 -96 154 -125h354q120 96 155 131v176q-19 19 -62.5 65t-70.5 72h-397 q-111 -116 -133 -137v-182z" />
<glyph unicode="9" horiz-adv-x="1165" d="M102 227v121h150v-61l135 -137h393l135 137v383l-73 -74h-512l-228 223v422l228 191h514l219 -191v-1014l-221 -227h-512zM252 881l135 -136h393l135 136v290l-135 109h-395l-133 -106v-293z" />
<glyph unicode=":" horiz-adv-x="362" d="M102 0v260h158v-260h-158zM102 608v260h158v-260h-158z" />
<glyph unicode=";" horiz-adv-x="460" d="M102 -59l97 129v184h159v-231l-131 -177zM199 608v260h159v-260h-159z" />
<glyph unicode="&#x3c;" horiz-adv-x="923" d="M102 582v120l719 467v-174l-540 -356q30 -19 231 -152.5t309 -201.5v-176q-532 353 -719 473z" />
<glyph unicode="=" horiz-adv-x="1079" d="M102 494v151h875v-151h-875zM102 760v151h875v-151h-875z" />
<glyph unicode="&#x3e;" horiz-adv-x="923" d="M102 109v176l539 362q-60 39 -170 109t-200.5 128.5t-168.5 110.5v174l719 -467v-120q-121 -76 -719 -473z" />
<glyph unicode="?" horiz-adv-x="1167" d="M102 1077v129l228 228h514l221 -228v-354l-399 -332v-289h-150v361l402 330v223q-18 18 -62.5 64.5t-71.5 72.5h-399q-18 -18 -62.5 -65t-70.5 -72v-68h-150zM516 0v180h150v-180h-150z" />
<glyph unicode="@" horiz-adv-x="1165" d="M102 186v1020l228 228h512l221 -228v-678l-219 -186h-158v37h-235l-150 149v160l322 195h18l-16 20h-113l-59 -61v-37h-152v100l150 148h237l150 -148v-370l77 63v547q-19 19 -62.5 65t-70.5 72h-397q-18 -18 -62.5 -65t-70.5 -72v-873l29 -24q19 -15 51.5 -49.5 t48.5 -48.5h418v-150h-469zM453 600l61 -68h111l61 62v135h-33q-23 -14 -91 -59t-109 -70z" />
<glyph unicode="A" horiz-adv-x="1406" d="M102 0l508 1434h185l510 -1434h-156l-148 410h-598q-24 -66 -73 -204.5t-74 -205.5h-154zM463 563h481q-39 103 -116.5 331.5t-125.5 352.5z" />
<glyph unicode="B" horiz-adv-x="1271" d="M102 0v1434h838l229 -234v-321l-165 -142l165 -170v-377l-229 -190h-838zM256 154h627q23 19 67 56.5t68 55.5v242l-160 158h-602v-512zM256 821h606l156 133v187l-141 139h-621v-459z" />
<glyph unicode="C" horiz-adv-x="1196" d="M102 190v1010l234 234h524l234 -234v-133h-154v74l-139 139h-406l-139 -139v-875l133 -112h418q52 43 133 112v68h154v-144l-234 -190h-524z" />
<glyph unicode="D" horiz-adv-x="1271" d="M102 0v1434h838l229 -234v-1010l-229 -190h-838zM256 154h627q23 19 67 56.5t68 55.5v875l-141 139h-621v-1126z" />
<glyph unicode="E" horiz-adv-x="1196" d="M102 0v1434h992v-154h-838v-459h727v-155h-727v-512h838v-154h-992z" />
<glyph unicode="F" horiz-adv-x="1196" d="M102 0v1434h992v-154h-838v-459h727v-155h-727v-666h-154z" />
<glyph unicode="G" horiz-adv-x="1271" d="M102 190v1010l234 234h604l229 -234v-133h-151v74l-141 139h-480l-141 -139v-875q12 -8 33 -27t33 -28q26 -26 69 -57h492q23 19 67 56.5t68 55.5v400h-428v155h579v-821h-151v66l-78 -66h-604z" />
<glyph unicode="H" horiz-adv-x="1269" d="M102 0v1434h154v-613h760v613h151v-1434h-151v666h-760v-666h-154z" />
<glyph unicode="I" horiz-adv-x="667" d="M102 0v154h152v1126h-152v154h463v-154h-157v-1126h157v-154h-463z" />
<glyph unicode="J" horiz-adv-x="860" d="M102 233v134h152v-74l141 -139h70l137 139v987h-465v154h621v-1201l-234 -233h-192z" />
<glyph unicode="K" horiz-adv-x="1286" d="M102 0v1434h154v-613h100l611 613h217l-695 -693l689 -741h-211l-613 666h-98v-666h-154z" />
<glyph unicode="L" horiz-adv-x="1196" d="M102 0v1434h154v-1280h838v-154h-992z" />
<glyph unicode="M" horiz-adv-x="1454" d="M102 0v1434h164l461 -785q23 38 196 331t267 454h162v-1434h-152v1139q-67 -118 -203 -345t-202 -341h-136l-403 688v-1141h-154z" />
<glyph unicode="N" horiz-adv-x="1249" d="M102 0v1434h162l729 -1170v1170h154v-1434h-162l-729 1167v-1167h-154z" />
<glyph unicode="O" horiz-adv-x="1271" d="M102 190v1010l234 234h604l229 -234v-1010l-229 -190h-604zM256 266q21 -16 64.5 -53.5t70.5 -58.5h492q23 19 67 56.5t68 55.5v875l-141 139h-480l-141 -139v-875z" />
<glyph unicode="P" horiz-adv-x="1271" d="M102 0v1434h838l229 -234v-321l-249 -213h-664v-666h-154zM256 821h604l158 133v187l-141 139h-621v-459z" />
<glyph unicode="Q" horiz-adv-x="1296" d="M102 190v1010l234 234h606l229 -234v-1010l-188 -151l211 -213l-107 -107l-282 281h-469zM258 266q41 -31 137 -112h488q23 19 67 56.5t68 55.5v875l-141 139h-480l-139 -139v-875z" />
<glyph unicode="R" horiz-adv-x="1277" d="M102 0v1434h838l229 -234v-321l-249 -213h-109q259 -475 365 -666h-179l-362 666h-379v-666h-154zM256 821h604l158 133v187l-141 139h-621v-459z" />
<glyph unicode="S" horiz-adv-x="1198" d="M102 190v144h154v-68l133 -112h420q53 43 133 112v242l-160 158h-428l-252 213v321l234 234h526l234 -234v-133h-154v74l-139 139h-408l-139 -139v-185q33 -33 39 -38q101 -87 115 -97h438l248 -254v-377l-234 -190h-526z" />
<glyph unicode="T" horiz-adv-x="1251" d="M102 1280v154h1047v-154h-444v-1280h-154v1280h-449z" />
<glyph unicode="U" horiz-adv-x="1196" d="M102 190v1244h154v-1168l133 -112h418q52 43 133 112v1168h154v-1244l-234 -190h-524z" />
<glyph unicode="V" horiz-adv-x="1333" d="M102 1434h170l400 -1223l391 1223h168q-87 -244 -238 -724t-231 -710h-191z" />
<glyph unicode="W" horiz-adv-x="1669" d="M102 1434h150l231 -1188l273 563h153l273 -565q15 77 39 202.5t74 388t116 599.5h156q-263 -1398 -269 -1434h-168l-299 614l-294 -614h-162q-30 162 -125.5 652t-147.5 782z" />
<glyph unicode="X" horiz-adv-x="1302" d="M102 0l463 717l-463 717h181l368 -578l369 578h180l-463 -717l463 -717h-180l-369 575q-124 -190 -368 -575h-181z" />
<glyph unicode="Y" horiz-adv-x="1302" d="M102 1434h181l368 -578l369 578h180l-473 -738v-696h-152v696z" />
<glyph unicode="Z" horiz-adv-x="1140" d="M102 0v106l732 1174h-723v154h927v-109l-733 -1171h733v-154h-936z" />
<glyph unicode="[" horiz-adv-x="616" d="M102 -233v1714h412v-154h-262v-1413h262v-147h-412z" />
<glyph unicode="\" horiz-adv-x="999" d="M102 1434h158l637 -1434h-160z" />
<glyph unicode="]" horiz-adv-x="616" d="M102 -86h263v1413h-263v154h412v-1714h-412v147z" />
<glyph unicode="^" horiz-adv-x="1271" d="M102 705l469 725h127l471 -725h-170l-364 548l-363 -548h-170z" />
<glyph unicode="_" horiz-adv-x="1079" d="M102 -154h875v-151h-875v151z" />
<glyph unicode="`" horiz-adv-x="688" d="M102 1430h250l234 -289h-193z" />
<glyph unicode="a" d="M102 229v211l506 310h150l-137 141h-232l-137 -137v-82h-150v141l228 227h352l227 -227v-813h-151v78l-76 -76h-352zM252 287l137 -135h232q16 16 62.5 61t74.5 74v311h-107q-12 -8 -137 -87t-262 -163v-61z" />
<glyph unicode="b" d="M102 0v1432h152v-467q63 63 76 75h352l227 -227v-586l-227 -227h-352l-78 78v-78h-150zM252 287l137 -137h232q16 16 62.5 61t74.5 74v471l-137 135h-232l-137 -137v-467z" />
<glyph unicode="c" d="M102 227v586l228 227h352l227 -227v-129h-151v72q-16 16 -63.5 62t-73.5 73h-232l-137 -137v-467l137 -137h232q16 16 62.5 61t74.5 74v71h151v-129l-227 -227h-352z" />
<glyph unicode="d" d="M102 227v586l228 227h352l76 -75v467h151v-1432h-151v76l-76 -76h-352zM252 287l137 -137h232q16 16 62.5 61t74.5 74v471q-16 16 -63.5 62t-73.5 73h-232l-137 -137v-467z" />
<glyph unicode="e" d="M102 227v586l228 227h352l227 -227v-303h-657v-223l137 -137h232q16 16 62.5 61t74.5 74v71h151v-129l-227 -227h-352zM252 662h506v94q-16 16 -63.5 62t-73.5 73h-232l-137 -137v-92z" />
<glyph unicode="f" horiz-adv-x="731" d="M102 0v1204l222 228h305v-152h-244q-15 -15 -61.5 -63t-73.5 -74v-64h379v-149h-379v-930h-148z" />
<glyph unicode="g" d="M102 -86h150v-70q88 -88 135 -133h236l135 133v232l-76 -76h-352l-228 227v586l228 227h352l76 -75v75h151v-1255l-227 -227h-352l-228 227v129zM252 287l137 -137h232q16 16 62.5 61t74.5 74v471q-16 16 -63.5 62t-73.5 73h-232l-137 -137v-467z" />
<glyph unicode="h" d="M102 0v1432h152v-467q63 63 76 75h352l227 -227v-813h-151v756q-16 16 -63.5 62t-73.5 73h-232l-137 -137v-754h-150z" />
<glyph unicode="i" horiz-adv-x="499" d="M102 891v149h295v-1040h-149v891h-146zM240 1235v197h157v-197h-157z" />
<glyph unicode="j" horiz-adv-x="557" d="M102 -199h68l133 133v957h-145v149h297v-1165l-226 -225h-127v151zM295 1235v197h160v-197h-160z" />
<glyph unicode="k" horiz-adv-x="1034" d="M102 0v1432h150v-799h129l340 407h199l-404 -481l416 -559h-189l-364 483h-127v-483h-150z" />
<glyph unicode="l" horiz-adv-x="499" d="M102 1280v152h295v-1432h-149v1280h-146z" />
<glyph unicode="m" horiz-adv-x="1521" d="M102 0v1040h148v-75l74 75h286l152 -151l149 151h283l225 -227v-813h-151v756q-22 23 -67 67.5t-68 67.5h-160l-137 -137v-754h-150v754l-135 137h-166l-135 -137v-754h-148z" />
<glyph unicode="n" d="M102 0v1040h152v-75q63 63 76 75h352l227 -227v-813h-151v756q-16 16 -63.5 62t-73.5 73h-232l-137 -137v-754h-150z" />
<glyph unicode="o" d="M102 227v586l228 227h352l227 -227v-586l-227 -227h-352zM252 287l137 -137h232q16 16 62.5 61t74.5 74v471l-137 135h-232l-137 -137v-467z" />
<glyph unicode="p" d="M102 -442v1482h152v-75q63 63 76 75h352l227 -227v-586l-227 -227h-352l-78 78v-520h-150zM252 287l137 -137h232l137 135v471q-16 16 -63.5 62t-73.5 73h-232l-137 -137v-467z" />
<glyph unicode="q" d="M102 227v586l228 227h352l76 -75v75h151v-1482h-151v518l-76 -76h-352zM252 287l137 -137h232q16 16 62.5 61t74.5 74v471q-16 16 -63.5 62t-73.5 73h-232l-137 -137v-467z" />
<glyph unicode="r" horiz-adv-x="804" d="M102 0v1040h152v-75q44 47 76 75h372v-149h-313l-137 -137v-754h-150z" />
<glyph unicode="s" horiz-adv-x="954" d="M102 147v129h150v-51l86 -75h283l79 73v156l-102 98h-301l-184 158v231l168 174h389l174 -174v-116h-152v59l-82 82h-266l-84 -84v-102q91 -73 94 -76h305l193 -193v-289l-178 -147h-395z" />
<glyph unicode="t" horiz-adv-x="806" d="M102 891v149h170v392h150v-392h283v-149h-283v-604l135 -137h148v-150h-207l-226 227v664h-170z" />
<glyph unicode="u" d="M102 227v813h150v-753l137 -137h232q16 16 62.5 61t74.5 74v755h151v-1040h-151v76l-76 -76h-352z" />
<glyph unicode="v" horiz-adv-x="1134" d="M102 1040h154l311 -823l312 823h153l-391 -1040h-149z" />
<glyph unicode="w" horiz-adv-x="1701" d="M102 1040h156l264 -800q145 428 266 800h123l267 -800l266 800h155l-346 -1040h-155l-250 750l-246 -750h-160z" />
<glyph unicode="x" horiz-adv-x="1081" d="M102 0l351 518l-351 522h181l258 -387l258 387h180l-348 -520q50 -74 344 -520h-176l-258 387l-258 -387h-181z" />
<glyph unicode="y" horiz-adv-x="1134" d="M102 1040h154l311 -823q57 141 157.5 418.5t149.5 404.5h158l-557 -1482h-153l165 452z" />
<glyph unicode="z" horiz-adv-x="931" d="M102 0v111l525 780h-514v149h716v-110l-524 -780h524v-150h-727z" />
<glyph unicode="{" horiz-adv-x="802" d="M102 588v86l189 157l-2 422l225 228h186v-154h-127l-133 -133v-436l-166 -131l168 -168v-414q7 -9 72 -74l57 -57h129v-147h-186l-225 223v407z" />
<glyph unicode="|" horiz-adv-x="354" d="M102 -127v1518h150v-1518h-150z" />
<glyph unicode="}" horiz-adv-x="802" d="M102 -86h125q38 38 66 65.5t38.5 37.5t18 17t12.5 13v412l166 168q-29 25 -85.5 69.5t-77.5 61.5v434q-13 13 -59.5 60.5t-74.5 74.5h-129v154h187l225 -228l-2 -422l188 -157v-86l-186 -191v-407l-225 -223h-187v147z" />
<glyph unicode="~" horiz-adv-x="1226" d="M102 246v131l228 225h510l135 137v70h149v-131l-223 -225h-512q-11 -11 -60 -59t-75 -75v-73h-152z" />
<glyph unicode="&#xa1;" horiz-adv-x="354" d="M102 -442v1159h150v-1159h-150zM102 770v180h150v-180h-150z" />
<glyph unicode="&#xa2;" d="M102 227v586l228 227h102v127h150v-127h100l227 -227v-129h-151v72q-16 16 -63.5 62t-73.5 73h-39v-741h39q16 16 62.5 61t74.5 74v71h151v-129l-227 -227h-100v-127h-150v127h-102zM252 287l137 -137h43v741h-43l-137 -137v-467z" />
<glyph unicode="&#xa3;" horiz-adv-x="1298" d="M102 0v150h62q25 22 70 57.5t63 50.5v389h-131v150h131v381l221 227h242l227 -227v-129h-153v69l-134 135h-120q-113 -113 -136 -135v-321h504v-150h-504v-389l134 -108h337q26 22 71 58.5t61 49.5v68h149v-140l-221 -186h-457l-147 125q-24 -24 -76 -63.5t-76 -61.5 h-117z" />
<glyph unicode="&#xa5;" horiz-adv-x="1267" d="M102 1405h172l357 -563l358 563h176l-391 -610h293v-150h-360v-131h360v-149h-360v-365h-150v365h-358v149h358v131h-358v150h293z" />
<glyph unicode="&#xa6;" horiz-adv-x="354" d="M102 -127v643h150v-643h-150zM102 748v643h150v-643h-150z" />
<glyph unicode="&#xa7;" horiz-adv-x="954" d="M102 -53v129h150v-56l82 -69h287q20 16 79 72v155l-102 98h-301l-184 158v232l96 98q-85 73 -96 82v233l168 174h389l174 -174v-116h-152v57l-82 82h-266l-84 -84v-103q7 -5 41.5 -32t52.5 -43h305l193 -191v-289l-66 -57l66 -70v-286l-178 -148h-395zM260 504 q91 -73 94 -76h305l21 -14l20 18v154q-57 54 -102 104h-254l-84 -84v-102z" />
<glyph unicode="&#xa8;" horiz-adv-x="606" d="M102 1272v162h158v-162h-158zM346 1272v162h158v-162h-158z" />
<glyph unicode="&#xa9;" horiz-adv-x="1271" d="M102 700q0 152 68.5 278.5t190.5 200.5t272 74q151 0 274 -74t192.5 -200.5t69.5 -278.5t-69.5 -277.5t-192.5 -198t-274 -72.5q-150 0 -272 72.5t-190.5 198t-68.5 277.5zM254 700q0 -166 109.5 -282.5t269.5 -116.5q164 0 274.5 116.5t110.5 282.5t-110.5 284 t-274.5 118q-160 0 -269.5 -118t-109.5 -284zM418 514v377l104 106h209l107 -106v-98h-133v49l-15 12q-2 3 -3.5 4.5l-2 2t-2 1.5t-2.5 2h-102l-25 -22v-267l18 -12h115q7 9 19 15v47h133v-111l-99 -88h-223z" />
<glyph unicode="&#xaa;" horiz-adv-x="741" d="M102 737v154l297 186h60l-33 33h-115l-59 -61v-35h-150v94l150 152h235l152 -152v-522h-387zM252 799l59 -64h115l61 66v137h-34q-40 -23 -108.5 -69.5t-92.5 -61.5v-8z" />
<glyph unicode="&#xab;" horiz-adv-x="935" d="M102 502v112l375 295v-192l-196 -160q29 -22 93.5 -74t102.5 -80v-192zM463 502v112l371 295v-192l-197 -160l197 -154v-194z" />
<glyph unicode="&#xac;" horiz-adv-x="1705" />
<glyph unicode="&#xad;" horiz-adv-x="774" d="M102 551v151h570v-151h-570z" />
<glyph unicode="&#xae;" horiz-adv-x="1271" d="M102 700q0 152 68.5 278.5t190.5 200.5t272 74q151 0 274 -74t192.5 -200.5t69.5 -278.5t-69.5 -277.5t-192.5 -198t-274 -72.5q-150 0 -272 72.5t-190.5 198t-68.5 277.5zM254 700q0 -166 109.5 -282.5t269.5 -116.5q164 0 274.5 116.5t110.5 282.5t-110.5 284 t-274.5 118q-160 0 -269.5 -118t-109.5 -284zM412 424v569h340l104 -102v-148l-100 -81q107 -192 135 -238h-158l-129 229h-59v-229h-133zM545 786h147l29 23v31l-23 22h-153v-76z" />
<glyph unicode="&#xaf;" horiz-adv-x="802" d="M102 1270v162h598v-162h-598z" />
<glyph unicode="&#xb0;" horiz-adv-x="778" d="M102 1024v238l168 170h238l168 -170v-238l-168 -168h-238zM252 1083l78 -77h116l80 77v117l-80 80h-116l-78 -80v-117z" />
<glyph unicode="&#xb1;" horiz-adv-x="1079" d="M102 0v150h875v-150h-875zM102 598v152h361v360h151v-360h363v-152h-363v-362h-151v362h-361z" />
<glyph unicode="&#xb2;" horiz-adv-x="839" d="M102 508v369l162 161h246l78 64v76q-2 2 -10 8.5t-23 20t-35 34.5h-203l-63 -63v-58h-152v119l150 152h334l151 -152v-211l-168 -137h-241l-74 -74v-158h483v-151h-635z" />
<glyph unicode="&#xb3;" horiz-adv-x="837" d="M102 635v129h152v-57l59 -50h213q4 3 15.5 14.5t22 20t22.5 15.5v110l-76 72h-203v149h205l74 60v80l-64 61h-207l-61 -61v-60h-152v121l150 152h332l151 -152v-209l-80 -69l80 -84v-242l-151 -127h-332z" />
<glyph unicode="&#xb4;" horiz-adv-x="686" d="M102 1145l232 289h250l-291 -289h-191z" />
<glyph unicode="&#xb6;" horiz-adv-x="1150" d="M102 815v391l224 228h723v-152h-148v-1409h-151v1409h-117v-1409h-152v717h-155z" />
<glyph unicode="&#xb7;" horiz-adv-x="362" d="M102 502v260h158v-260h-158z" />
<glyph unicode="&#xb8;" horiz-adv-x="493" d="M102 -156h140v54h-99v217h148v-66h24l76 -76v-200l-76 -76h-213v147z" />
<glyph unicode="&#xb9;" horiz-adv-x="524" d="M102 1063v180l220 148h100v-883h-150v672z" />
<glyph unicode="&#xba;" horiz-adv-x="739" d="M102 737v373l150 150h233l152 -150v-373l-152 -151h-233zM252 799l61 -64h111l63 64v252l-63 61h-113l-59 -61v-252z" />
<glyph unicode="&#xbb;" horiz-adv-x="935" d="M102 209v194l195 154q-34 26 -99.5 81t-95.5 79v192l371 -295v-112zM459 211v192q34 25 97.5 79t96.5 77q-34 26 -99 80t-95 78v192l375 -295v-112z" />
<glyph unicode="&#xbc;" horiz-adv-x="1435" d="M102 1059v184l217 148h105v-883h-150v674zM281 0l616 1391h158l-613 -1391h-161zM680 225v105l393 551h148v-506h112v-150h-112v-225h-152v225h-389zM891 375h178v246z" />
<glyph unicode="&#xbd;" horiz-adv-x="1601" d="M102 1059v184l217 148h103v-883h-148v674zM281 0l616 1391h158l-617 -1391h-157zM864 0v367l162 163h248l74 66q0 12 -1 36.5t-1 39.5q-30 15 -66 61h-203l-61 -63v-60h-152v121l152 150h332l151 -150v-211l-166 -139h-243l-74 -72v-159h483v-150h-635z" />
<glyph unicode="&#xbe;" horiz-adv-x="1703" d="M102 635v129h150v-57l57 -50h209q17 13 30 23.5t18.5 15t10 8t7.5 5.5v108l-72 72h-207v149h211l68 60v80l-66 61h-205l-61 -61v-60h-150v121l152 152h328l151 -152v-209l-82 -69q39 -42 82 -80v-246l-151 -127h-328zM547 0l616 1391h158l-614 -1391h-160zM946 225v105 l391 551h150v-506h115v-150h-115v-225h-152v225h-389zM1157 375h178v246z" />
<glyph unicode="&#xbf;" horiz-adv-x="1167" d="M102 98l402 332v287h149v-359l-401 -331v-183q15 -15 41.5 -42t48.5 -49t43 -42h399q110 111 134 133v70h147v-129l-221 -227h-514l-228 227v313zM504 770v180h149v-180h-149z" />
<glyph unicode="&#xc0;" horiz-adv-x="1406" d="M102 0l508 1434h185l510 -1434h-156l-148 410h-598q-24 -66 -73 -204.5t-74 -205.5h-154zM446 1831h256l238 -295h-192zM463 563h481q-39 103 -116.5 331.5t-125.5 352.5z" />
<glyph unicode="&#xc1;" horiz-adv-x="1406" d="M102 0l508 1434h185l510 -1434h-156l-148 410h-598q-24 -66 -73 -204.5t-74 -205.5h-154zM463 563h481q-39 103 -116.5 331.5t-125.5 352.5zM467 1536l235 295h256l-299 -295h-192z" />
<glyph unicode="&#xc2;" horiz-adv-x="1406" d="M102 0l508 1434h185l510 -1434h-156l-148 410h-598q-24 -66 -73 -204.5t-74 -205.5h-154zM350 1536l303 330h101l301 -330h-207l-150 158l-141 -158h-207zM463 563h481q-1 2 -104 297q-87 258 -138 387z" />
<glyph unicode="&#xc3;" horiz-adv-x="1406" d="M102 0l508 1434h185l510 -1434h-156l-148 410h-598q-24 -66 -73 -204.5t-74 -205.5h-154zM397 1499v133l115 117h317l23 25v69h154v-131l-113 -119h-320l-22 -20v-74h-154zM463 563h479q-37 99 -114 326t-126 358z" />
<glyph unicode="&#xc4;" horiz-adv-x="1406" d="M102 0l508 1434h185l510 -1434h-156l-148 410h-598q-24 -66 -73 -204.5t-74 -205.5h-154zM463 563h479q-37 99 -114 326t-126 358zM502 1536v162h157v-162h-157zM745 1536v162h158v-162h-158z" />
<glyph unicode="&#xc5;" horiz-adv-x="1406" d="M102 0l467 1307l-112 114v207l141 144h207l143 -144v-207l-112 -110q62 -176 469 -1311h-156l-148 410h-598q-24 -66 -73 -204.5t-74 -205.5h-154zM463 563h479q-37 99 -114 326t-126 358zM608 1483l49 -49h88l52 49v84l-52 51h-88l-49 -51v-84z" />
<glyph unicode="&#xc6;" horiz-adv-x="1728" d="M102 0l512 1434h779l233 -234v-133h-156v74l-141 139h-545v-459h725v-155h-725v-512h551q21 16 64.5 53.5t70.5 58.5v68h156v-144l-233 -190h-764v410h-226l-143 -410h-158zM463 563h166v469q-115 -328 -166 -469z" />
<glyph unicode="&#xc7;" horiz-adv-x="1196" d="M102 190v1010l234 234h524l234 -234v-133h-154v74l-139 139h-406l-139 -139v-875l133 -112h418q52 43 133 112v68h154v-144l-234 -190h-211v-43h25l78 -78v-201l-78 -77h-215v149h141v53h-100v197h-164z" />
<glyph unicode="&#xc8;" horiz-adv-x="1196" d="M102 0v1434h992v-154h-838v-459h727v-155h-727v-512h838v-154h-992zM342 1831h254l240 -295h-197z" />
<glyph unicode="&#xc9;" horiz-adv-x="1196" d="M102 0v1434h992v-154h-838v-459h727v-155h-727v-512h838v-154h-992zM360 1534l240 295h254l-297 -295h-197z" />
<glyph unicode="&#xca;" horiz-adv-x="1196" d="M102 0v1434h992v-154h-838v-459h727v-155h-727v-512h838v-154h-992zM246 1534l305 330h96l303 -330h-205l-149 158q-131 -142 -145 -158h-205z" />
<glyph unicode="&#xcb;" horiz-adv-x="1196" d="M102 0v1434h992v-154h-838v-459h727v-155h-727v-512h838v-154h-992zM397 1536v162h158v-162h-158zM641 1536v162h158v-162h-158z" />
<glyph unicode="&#xcc;" horiz-adv-x="698" d="M102 1829h256l238 -295h-195zM129 0v154h152v1126h-152v154h463v-154h-158v-1126h158v-154h-463z" />
<glyph unicode="&#xcd;" horiz-adv-x="698" d="M102 1534l240 295h254l-299 -295h-195zM109 0v154h151v1126h-151v154h462v-154h-157v-1126h157v-154h-462z" />
<glyph unicode="&#xce;" horiz-adv-x="907" d="M102 1536l301 330h99l303 -330h-207l-145 158l-144 -158h-207zM221 0v154h150v1126h-150v154h463v-154h-158v-1126h158v-154h-463z" />
<glyph unicode="&#xcf;" horiz-adv-x="667" d="M102 0v154h152v1126h-152v154h463v-154h-157v-1126h157v-154h-463zM133 1536v162h158v-162h-158zM377 1536v162h158v-162h-158z" />
<glyph unicode="&#xd0;" horiz-adv-x="1368" d="M102 666v155h97v613h835l232 -234v-1010l-232 -190h-835v666h-97zM352 154h627q24 19 68 56.5t67 55.5v875l-141 139h-621v-459h340v-155h-340v-512z" />
<glyph unicode="&#xd1;" horiz-adv-x="1249" d="M102 0v1434h162l729 -1170v1170h154v-1434h-162l-729 1167v-1167h-154zM322 1507v133l110 117h318l6 6q16 16 18 19v69h156v-131l-117 -118h-313l-25 -23v-72h-153z" />
<glyph unicode="&#xd2;" horiz-adv-x="1271" d="M102 190v1010l234 234h604l229 -234v-1010l-229 -190h-604zM256 266q21 -16 64.5 -53.5t70.5 -58.5h492q23 19 67 56.5t68 55.5v875l-141 139h-480l-141 -139v-875zM381 1831h256l237 -295h-194z" />
<glyph unicode="&#xd3;" horiz-adv-x="1271" d="M102 190v1010l234 234h604l229 -234v-1010l-229 -190h-604zM256 266q12 -8 33 -27t33 -28q26 -26 69 -57h492q23 19 67 56.5t68 55.5v875l-141 139h-480l-141 -139v-875zM401 1534l238 295h254l-299 -295h-193z" />
<glyph unicode="&#xd4;" horiz-adv-x="1271" d="M102 190v1010l234 234h604l229 -234v-1010l-229 -190h-604zM256 266q12 -8 33 -27t33 -28q26 -26 69 -57h492q23 19 67 56.5t68 55.5v875l-141 139h-480l-141 -139v-875zM287 1536l299 330h100l303 -330h-205l-145 158l-147 -158h-205z" />
<glyph unicode="&#xd5;" horiz-adv-x="1271" d="M102 190v1010l234 234h604l229 -234v-1010l-229 -190h-604zM256 266q21 -16 64.5 -53.5t70.5 -58.5h492q23 19 67 56.5t68 55.5v875l-141 139h-480l-141 -139v-875zM334 1503v133l110 117h318l24 25v69h154v-131l-115 -119h-315l-23 -22v-72h-153z" />
<glyph unicode="&#xd6;" horiz-adv-x="1271" d="M102 190v1010l234 234h604l229 -234v-1010l-229 -190h-604zM256 266q12 -8 33 -27t33 -28q26 -26 69 -57h492q23 19 67 56.5t68 55.5v875l-141 139h-480l-141 -139v-875zM434 1536v162h158v-162h-158zM678 1536v162h158v-162h-158z" />
<glyph unicode="&#xd7;" horiz-adv-x="925" d="M102 371l256 254l-256 256l105 102l256 -252l256 254l104 -104l-256 -254l256 -258l-104 -105l-258 254l-254 -252z" />
<glyph unicode="&#xd8;" horiz-adv-x="1271" d="M102 190v1010l234 234h532l47 96h166l-73 -164l161 -166v-1010l-229 -190h-534l-21 -39q-13 -20 -23 -57h-167l69 157q-110 89 -162 129zM256 1141q2 -881 4 -881l66 -53q367 821 477 1073h-406zM473 154h410q23 19 67 56.5t68 55.5v875l-80 78q-18 -41 -166.5 -383.5 t-298.5 -681.5z" />
<glyph unicode="&#xd9;" horiz-adv-x="1196" d="M102 190v1244h154v-1168l133 -112h418q52 43 133 112v1168h154v-1244l-234 -190h-524zM342 1831h254l240 -295h-197z" />
<glyph unicode="&#xda;" horiz-adv-x="1196" d="M102 190v1244h154v-1168l133 -112h418q52 43 133 112v1168h154v-1244l-234 -190h-524zM360 1534l240 295h254l-297 -295h-197z" />
<glyph unicode="&#xdb;" horiz-adv-x="1196" d="M102 190v1244h154v-1168l133 -112h418q52 43 133 112v1168h154v-1244l-234 -190h-524zM246 1534l305 330h96l303 -330h-205l-149 158q-131 -142 -145 -158h-205z" />
<glyph unicode="&#xdc;" horiz-adv-x="1196" d="M102 190v1244h154v-1168l133 -112h418q52 43 133 112v1168h154v-1244l-234 -190h-524zM397 1536v162h158v-162h-158zM641 1536v162h158v-162h-158z" />
<glyph unicode="&#xdd;" horiz-adv-x="1302" d="M102 1434h181l368 -578l369 578h180l-473 -738v-696h-152v696zM414 1534l239 295h254l-299 -295h-194z" />
<glyph unicode="&#xde;" horiz-adv-x="1271" d="M102 0v1434h154v-240h684l229 -227v-326l-249 -211h-664v-430h-154zM256 584h604l158 127v190l-141 141h-621v-458z" />
<glyph unicode="&#xdf;" horiz-adv-x="1165" d="M102 0v1206l228 228h512l221 -228v-313l-162 -135l162 -164v-408l-219 -186h-443v150h381l133 108v274l-153 156h-72v150h70q108 87 155 131v176q-19 19 -62.5 65t-70.5 72h-397q-18 -18 -62.5 -65t-70.5 -72v-1145h-150z" />
<glyph unicode="&#xe0;" d="M102 229v211l506 310h150l-137 141h-232l-137 -137v-82h-150v141l228 227h352l227 -227v-813h-151v78l-76 -76h-352zM252 287l137 -135h232q16 16 62.5 61t74.5 74v311h-107q-12 -8 -137 -87t-262 -163v-61zM254 1427h250l231 -286h-190z" />
<glyph unicode="&#xe1;" d="M102 229v211l506 310h150l-137 141h-232l-137 -137v-82h-150v141l228 227h352l227 -227v-813h-151v78l-76 -76h-352zM252 287l137 -135h232q16 16 62.5 61t74.5 74v311h-107q-12 -8 -137 -87t-262 -163v-61zM274 1141l230 286h250l-291 -286h-189z" />
<glyph unicode="&#xe2;" d="M102 229v211l506 310h150l-137 141h-232l-137 -137v-82h-150v141l228 227h352l227 -227v-813h-151v78l-76 -76h-352zM160 1141l295 319h98l295 -319h-203l-143 149l-140 -149h-202zM252 287l137 -135h232q16 16 62.5 61t74.5 74v311h-107q-12 -8 -137 -87t-262 -163v-61z " />
<glyph unicode="&#xe3;" d="M102 229v211l506 310h150l-137 141h-232l-137 -137v-82h-150v141l228 227h352l227 -227v-813h-151v78l-76 -76h-352zM211 1128v132l111 112h305l24 25v67h150v-129l-111 -110h-305l-25 -25v-72h-149zM252 287l137 -135h232q16 16 62.5 61t74.5 74v311h-107 q-12 -8 -137 -87t-262 -163v-61z" />
<glyph unicode="&#xe4;" d="M102 229v211l506 310h150l-137 141h-232l-137 -137v-82h-150v141l228 227h352l227 -227v-813h-151v78l-76 -76h-352zM252 287l137 -135h232q16 16 62.5 61t74.5 74v311h-107q-12 -8 -137 -87t-262 -163v-61zM305 1141v162h158v-162h-158zM549 1141v162h158v-162h-158z " />
<glyph unicode="&#xe5;" d="M102 229v211l506 310h150l-137 141h-232l-137 -137v-82h-150v141l228 227h352l227 -227v-813h-151v78l-76 -76h-352zM252 287l137 -135h232q16 16 62.5 61t74.5 74v311h-107q-12 -8 -137 -87t-262 -163v-61zM266 1245v199l135 141h205l139 -141v-199l-139 -137h-205z M416 1305l47 -48h82q7 7 24.5 23t26.5 25v79l-51 50h-82l-47 -50v-79z" />
<glyph unicode="&#xe6;" horiz-adv-x="1667" d="M102 229v211l508 310h150l-137 141h-232l-137 -137v-82h-152v141l228 227h354l150 -151l151 151h354l226 -227v-303h-656v-223l135 -137h234q16 16 43 42t49 48t43 45v71h152v-129l-226 -227h-354l-76 78v-78h-149v78l-76 -76h-354zM254 287l137 -135h232l137 135v311 h-107q-210 -136 -399 -250v-61zM909 662h504v94q-22 23 -67 67.5t-68 67.5h-234l-135 -137v-92z" />
<glyph unicode="&#xe7;" d="M102 227v586l228 227h352l227 -227v-129h-151v72q-16 16 -63.5 62t-73.5 73h-232l-137 -137v-467l137 -137h232q16 16 62.5 61t74.5 74v71h151v-129l-227 -227h-123v-45h25l75 -76v-201l-75 -75h-213v147h139v53h-98v197h-82z" />
<glyph unicode="&#xe8;" d="M102 227v586l228 227h352l227 -227v-303h-657v-223l137 -137h232q16 16 62.5 61t74.5 74v71h151v-129l-227 -227h-352zM252 662h506v94q-16 16 -63.5 62t-73.5 73h-232l-137 -137v-92zM254 1427h250l231 -286h-190z" />
<glyph unicode="&#xe9;" d="M102 227v586l228 227h352l227 -227v-303h-657v-223l137 -137h232q16 16 62.5 61t74.5 74v71h151v-129l-227 -227h-352zM252 662h506v94q-16 16 -63.5 62t-73.5 73h-232l-137 -137v-92zM274 1141l230 286h250l-291 -286h-189z" />
<glyph unicode="&#xea;" d="M102 227v586l228 227h352l227 -227v-303h-657v-223l137 -137h232q16 16 62.5 61t74.5 74v71h151v-129l-227 -227h-352zM160 1141l295 319h98l295 -319h-203l-143 149l-140 -149h-202zM252 662h506v94q-16 16 -63.5 62t-73.5 73h-232l-137 -137v-92z" />
<glyph unicode="&#xeb;" d="M102 227v586l228 227h352l227 -227v-303h-657v-223l137 -137h232q16 16 62.5 61t74.5 74v71h151v-129l-227 -227h-352zM252 662h506v94q-16 16 -63.5 62t-73.5 73h-232l-137 -137v-92zM305 1141v162h158v-162h-158zM549 1141v162h158v-162h-158z" />
<glyph unicode="&#xec;" horiz-adv-x="688" d="M102 1427h250l234 -286h-193zM205 891v149h297v-1040h-152v891h-145z" />
<glyph unicode="&#xed;" horiz-adv-x="686" d="M102 1141l232 286h250l-291 -286h-191zM184 891v149h297v-1040h-151v891h-146z" />
<glyph unicode="&#xee;" horiz-adv-x="897" d="M102 1141l297 319h97l299 -319h-205l-144 151l-141 -151h-203zM299 891v149h297v-1040h-152v891h-145z" />
<glyph unicode="&#xef;" horiz-adv-x="606" d="M102 1141v162h158v-162h-158zM154 891v149h299v-1040h-152v891h-147zM346 1141v162h158v-162h-158z" />
<glyph unicode="&#xf0;" horiz-adv-x="1265" d="M102 186v412l228 225h512l76 -73v397l-15 14l-182 -178l-105 104l181 181l-15 14h-393l-135 -135v-66h-152v125l228 228h512l61 -62l156 156l104 -105l-157 -157l63 -60v-1020l-227 -186h-512zM254 258l129 -108h403q107 90 132 108v283q-19 19 -66 63t-72 70h-391 l-135 -133v-283z" />
<glyph unicode="&#xf1;" d="M102 0v1040h152v-75q63 63 76 75h352l227 -227v-813h-151v756q-16 16 -63.5 62t-73.5 73h-232l-137 -137v-754h-150zM211 1118v131l111 113h305l24 24v70h150v-131l-111 -111h-305l-25 -24v-72h-149z" />
<glyph unicode="&#xf2;" d="M102 227v586l228 227h352l227 -227v-586l-227 -227h-352zM252 287l137 -137h232q16 16 62.5 61t74.5 74v471l-137 135h-232l-137 -137v-467zM254 1425h250l231 -284h-190z" />
<glyph unicode="&#xf3;" d="M102 227v586l228 227h352l227 -227v-586l-227 -227h-352zM252 287l137 -137h232q16 16 62.5 61t74.5 74v471l-137 135h-232l-137 -137v-467zM274 1141l230 286h250l-291 -286h-189z" />
<glyph unicode="&#xf4;" d="M102 227v586l228 227h352l227 -227v-586l-227 -227h-352zM160 1141l295 319h98l295 -319h-203l-143 149l-140 -149h-202zM252 287l137 -137h232q16 16 62.5 61t74.5 74v471l-137 135h-232l-137 -137v-467z" />
<glyph unicode="&#xf5;" d="M102 227v586l228 227h352l227 -227v-586l-227 -227h-352zM211 1110v131l111 113h305l24 24v68h150v-129l-111 -111h-305l-25 -24v-72h-149zM252 287l137 -137h232q16 16 62.5 61t74.5 74v471l-137 135h-232l-137 -137v-467z" />
<glyph unicode="&#xf6;" d="M102 227v586l228 227h352l227 -227v-586l-227 -227h-352zM252 287l137 -137h232q16 16 62.5 61t74.5 74v471l-137 135h-232l-137 -137v-467zM305 1141v162h158v-162h-158zM549 1141v162h158v-162h-158z" />
<glyph unicode="&#xf7;" horiz-adv-x="1079" d="M102 551v151h875v-151h-875zM463 231v261h151v-261h-151zM463 758v258h151v-258h-151z" />
<glyph unicode="&#xf8;" d="M102 227v586l228 227h321l39 90h162l-78 -180q11 -11 58.5 -61t76.5 -76v-586l-227 -227h-328l-39 -90h-159l77 182zM252 287l45 -49q49 114 144.5 327t144.5 326h-197l-137 -137v-467zM420 150h201q16 16 62.5 61t74.5 74v469l-51 51z" />
<glyph unicode="&#xf9;" d="M102 227v813h150v-753l137 -137h232q16 16 62.5 61t74.5 74v755h151v-1040h-151v76l-76 -76h-352zM254 1425h250l231 -284h-190z" />
<glyph unicode="&#xfa;" d="M102 227v813h150v-753l137 -137h232q16 16 62.5 61t74.5 74v755h151v-1040h-151v76l-76 -76h-352zM274 1141l230 284h250l-291 -284h-189z" />
<glyph unicode="&#xfb;" d="M102 227v813h150v-753l137 -137h232q16 16 62.5 61t74.5 74v755h151v-1040h-151v76l-76 -76h-352zM160 1141l295 319h98l295 -319h-203l-143 149l-140 -149h-202z" />
<glyph unicode="&#xfc;" d="M102 227v813h150v-753l137 -137h232q16 16 62.5 61t74.5 74v755h151v-1040h-151v76l-76 -76h-352zM305 1141v162h158v-162h-158zM549 1141v162h158v-162h-158z" />
<glyph unicode="&#xfd;" horiz-adv-x="1134" d="M102 1040h154l311 -823q57 141 157.5 418.5t149.5 404.5h158l-557 -1482h-153l165 452zM336 1141l233 286h248l-291 -286h-190z" />
<glyph unicode="&#xfe;" d="M102 -440v1874h152v-467q63 63 76 75h352l227 -227v-586l-227 -227h-352l-78 76v-518h-150zM252 287l137 -135h232l137 135v469l-135 135h-236l-135 -137v-467z" />
<glyph unicode="&#xff;" horiz-adv-x="1134" d="M102 1040h154l311 -823q17 43 21 62q240 643 286 761h158l-557 -1482h-153l165 452zM362 1141v162h158v-162h-158zM606 1141v162h158v-162h-158z" />
<glyph unicode="&#x152;" horiz-adv-x="2111" d="M102 190v1010l234 234h604l78 -78v78h760l231 -234v-133h-151v74l-140 139h-547v-459h727v-155h-727v-512h551q20 16 43 34.5t50.5 41.5t42.5 36v68h151v-144l-231 -190h-760v66l-78 -66h-604zM256 266q21 -16 64.5 -53.5t70.5 -58.5h492q23 19 67 56.5t68 55.5v875 l-141 139h-480l-141 -139v-875z" />
<glyph unicode="&#x153;" horiz-adv-x="1667" d="M102 227v586l228 227h354l150 -151l151 151h354l226 -227v-303h-656v-223l135 -137h234q16 16 43 42t49 48t43 45v71h152v-129l-226 -227h-354l-151 152l-150 -152h-354zM254 287l137 -137h232l137 137v467l-137 137h-232l-137 -137v-467zM909 662h504v94 q-22 23 -67 67.5t-68 67.5h-234l-135 -137v-92z" />
<glyph unicode="&#x178;" horiz-adv-x="1302" d="M102 1434h181l368 -578l369 578h180l-473 -738v-696h-152v696zM449 1536v162h157v-162h-157zM692 1536v162h158v-162h-158z" />
<glyph unicode="&#x2c6;" horiz-adv-x="897" d="M102 1110l297 322h97l299 -322h-205l-144 152l-141 -152h-203z" />
<glyph unicode="&#x2dc;" horiz-adv-x="794" d="M102 1075v129l111 113h305l25 22v70h149v-129l-110 -113h-306l-24 -24v-68h-150z" />
<glyph unicode="&#x2000;" horiz-adv-x="933" />
<glyph unicode="&#x2001;" horiz-adv-x="1866" />
<glyph unicode="&#x2002;" horiz-adv-x="933" />
<glyph unicode="&#x2003;" horiz-adv-x="1866" />
<glyph unicode="&#x2004;" horiz-adv-x="622" />
<glyph unicode="&#x2005;" horiz-adv-x="466" />
<glyph unicode="&#x2006;" horiz-adv-x="311" />
<glyph unicode="&#x2007;" horiz-adv-x="311" />
<glyph unicode="&#x2008;" horiz-adv-x="233" />
<glyph unicode="&#x2009;" horiz-adv-x="373" />
<glyph unicode="&#x200a;" horiz-adv-x="103" />
<glyph unicode="&#x2010;" horiz-adv-x="774" d="M102 551v151h570v-151h-570z" />
<glyph unicode="&#x2011;" horiz-adv-x="774" d="M102 551v151h570v-151h-570z" />
<glyph unicode="&#x2012;" horiz-adv-x="774" d="M102 551v151h570v-151h-570z" />
<glyph unicode="&#x2013;" horiz-adv-x="999" d="M102 551v151h795v-151h-795z" />
<glyph unicode="&#x2014;" horiz-adv-x="1298" d="M102 551v151h1094v-151h-1094z" />
<glyph unicode="&#x2018;" horiz-adv-x="462" d="M102 1018v233l134 179l124 -99l-98 -127v-186h-160z" />
<glyph unicode="&#x2019;" horiz-adv-x="460" d="M102 1106l97 127v186h159v-233l-131 -176z" />
<glyph unicode="&#x201a;" horiz-adv-x="460" d="M102 -59l97 129v184h159v-231l-131 -177z" />
<glyph unicode="&#x201c;" horiz-adv-x="675" d="M102 1016v233l134 178l124 -98l-98 -127v-186h-160zM319 1016v233l132 178l122 -98l-96 -127v-186h-158z" />
<glyph unicode="&#x201d;" horiz-adv-x="675" d="M102 1106l97 127v186h157v-233l-131 -176zM315 1106l99 127v186h159v-233l-133 -176z" />
<glyph unicode="&#x201e;" horiz-adv-x="675" d="M102 -59l97 129v184h157v-231l-131 -179zM315 -59l99 129v184h159v-231l-133 -179z" />
<glyph unicode="&#x2022;" horiz-adv-x="706" d="M102 524v207l146 146h209l147 -146v-207l-147 -147h-209z" />
<glyph unicode="&#x2026;" horiz-adv-x="821" d="M102 0v260h160v-260h-160zM332 0v260h160v-260h-160zM559 0v260h160v-260h-160z" />
<glyph unicode="&#x202f;" horiz-adv-x="373" />
<glyph unicode="&#x2039;" horiz-adv-x="577" d="M102 502v112l373 295v-192l-196 -160l196 -154v-192z" />
<glyph unicode="&#x203a;" horiz-adv-x="577" d="M102 211v192l199 156q-149 114 -199 158v192l373 -295v-112z" />
<glyph unicode="&#x205f;" horiz-adv-x="466" />
<glyph unicode="&#x20ac;" horiz-adv-x="1261" d="M102 494v151h93v156h-93v149h93v254l225 228h512l227 -228v-129h-149v68q-8 8 -57 58.5t-79 78.5h-395q-18 -18 -62.5 -65t-70.5 -72v-193h631v-149h-631v-156h631v-151h-631v-236l129 -108h402l133 108v68h149v-140l-227 -186h-512l-225 186v308h-93z" />
<glyph unicode="&#x2122;" horiz-adv-x="1693" d="M102 1284v150h637v-150h-241v-700h-152v700h-244zM844 584v850h143l232 -398q160 268 235 398h137v-850h-147v549l-172 -302h-109l-170 289v-536h-149z" />
<glyph unicode="&#xe000;" horiz-adv-x="1044" d="M0 0v1044h1044v-1044h-1044z" />
<glyph unicode="&#xfb01;" horiz-adv-x="1095" d="M102 0v1204l224 228h303v-152h-244q-18 -18 -62.5 -65t-70.5 -72v-76h377v-149h-377v-918h-150zM698 918v149h295v-1067h-149v918h-146zM844 1251v181h149v-181h-149z" />
<glyph unicode="&#xfb02;" horiz-adv-x="1095" d="M102 0v1204l224 228h303v-152h-244q-18 -18 -62.5 -65t-70.5 -72v-76h377v-149h-377v-918h-150zM698 1280v152h295v-1432h-149v1280h-146z" />
</font>
</defs>
</svg>
